# xmcd
#
# Track frame offsets:
#	150
#	15787
#	28687
#	44475
#	57451
#	79087
#	93412
#	113250
#	132038
#	150075
#	167700
#	181350
#	198037
#	213150
#	225562
#
# Disc length: 3188 seconds
#
# Revision: 0
# Processed by: cddbd v1.5.2PL0 Copyright (c) Steve Scherf et al.
# Submitted via: EasyCDDAExtractor 15.2.5.1
#
DISCID=a60c720f
DTITLE=Donna Hughes - Hellos Goodbyes and Butterflies
DYEAR=2010
DGENRE=Bluegrass
TTITLE0=Cut Your Losses
TTITLE1=Nothing Easy
TTITLE2=Saying Hello
TTITLE3=Dr Jekyl, Mr Hyde
TTITLE4=Butterfly
TTITLE5=Jesse
TTITLE6=Last ThingI Need
TTITLE7=Losing You
TTITLE8=God Don't Make Mistakes
TTITLE9=Mid-Life Crisis
TTITLE10=Autumn Leaves
TTITLE11=If I Had You
TTITLE12=Blackbeard
TTITLE13=Longing For You
TTITLE14=Better Apart
EXTD=
EXTT0=
EXTT1=
EXTT2=
EXTT3=
EXTT4=
EXTT5=
EXTT6=
EXTT7=
EXTT8=
EXTT9=
EXTT10=
EXTT11=
EXTT12=
EXTT13=
EXTT14=
PLAYORDER=
